<?xml version="1.0" encoding="UTF-8" standalone="no"?>
<!-- Created with Inkscape (http://www.inkscape.org/) -->

<svg
   xmlns:dc="http://purl.org/dc/elements/1.1/"
   xmlns:cc="http://creativecommons.org/ns#"
   xmlns:rdf="http://www.w3.org/1999/02/22-rdf-syntax-ns#"
   xmlns:svg="http://www.w3.org/2000/svg"
   xmlns="http://www.w3.org/2000/svg"
   xmlns:xlink="http://www.w3.org/1999/xlink"
   xmlns:sodipodi="http://sodipodi.sourceforge.net/DTD/sodipodi-0.dtd"
   xmlns:inkscape="http://www.inkscape.org/namespaces/inkscape"
   width="48px"
   height="48px"
   id="svg2985"
   version="1.1"
   inkscape:version="0.48.3.1 r9886"
   sodipodi:docname="geany.svg">
  <defs
     id="defs2987">
    <linearGradient
       gradientTransform="matrix(1.0238095,0,0,1.0119048,-1.1428571,-98.071429)"
       gradientUnits="userSpaceOnUse"
       xlink:href="#ButtonShadow-0"
       id="linearGradient3026"
       y2="90.238609"
       x2="32.251034"
       y1="6.1317081"
       x1="32.251034" />
    <linearGradient
       gradientTransform="translate(0,-97)"
       gradientUnits="userSpaceOnUse"
       xlink:href="#ButtonShadow-0"
       id="linearGradient3721"
       y2="90.238609"
       x2="32.251034"
       y1="6.1317081"
       x1="32.251034" />
    <linearGradient
       gradientTransform="matrix(1.0238095,0,0,1.0119048,-1.1428571,-98.071429)"
       gradientUnits="userSpaceOnUse"
       xlink:href="#ButtonShadow-0"
       id="linearGradient3725"
       y2="90.238609"
       x2="32.251034"
       y1="6.1317081"
       x1="32.251034" />
    <linearGradient
       gradientTransform="matrix(1.0238095,0,0,1.0119048,-1.1428571,-98.071429)"
       gradientUnits="userSpaceOnUse"
       xlink:href="#ButtonShadow-0"
       id="linearGradient3772"
       y2="90.238609"
       x2="32.251034"
       y1="6.1317081"
       x1="32.251034" />
    <linearGradient
       gradientTransform="matrix(1.0238095,0,0,1.0119048,-1.1428571,-98.071429)"
       gradientUnits="userSpaceOnUse"
       xlink:href="#ButtonShadow-0"
       id="linearGradient3780"
       y2="90.238609"
       x2="32.251034"
       y1="6.1317081"
       x1="32.251034" />
    <linearGradient
       gradientTransform="matrix(1.0058652,0,0,0.994169,100,0)"
       gradientUnits="userSpaceOnUse"
       id="ButtonShadow-0"
       y2="7.0165396"
       x2="45.447727"
       y1="92.539597"
       x1="45.447727">
      <stop
         offset="0"
         style="stop-color:#000000;stop-opacity:1"
         id="stop3750-8" />
      <stop
         offset="1"
         style="stop-color:#000000;stop-opacity:0.58823532"
         id="stop3752-5" />
    </linearGradient>
    <clipPath
       id="clipPath3613">
      <rect
         style="fill:#ffffff;fill-opacity:1;fill-rule:nonzero;stroke:none"
         id="rect3615"
         y="6"
         x="6"
         ry="6"
         rx="6"
         height="84"
         width="84" />
    </clipPath>
    <linearGradient
       gradientUnits="userSpaceOnUse"
       xlink:href="#linearGradient3737"
       id="linearGradient3613"
       y2="138.66119"
       x2="48"
       y1="20.220806"
       x1="48" />
    <filter
       id="filter3794"
       color-interpolation-filters="sRGB"
       height="1.3839999"
       width="1.3839999"
       y="-0.192"
       x="-0.192">
      <feGaussianBlur
         stdDeviation="5.28"
         id="feGaussianBlur3796" />
    </filter>
    <filter
       id="filter3174"
       color-interpolation-filters="sRGB">
      <feGaussianBlur
         stdDeviation="1.71"
         id="feGaussianBlur3176" />
    </filter>
    <linearGradient
       id="linearGradient3700">
      <stop
         offset="0"
         style="stop-color:#f4d53a;stop-opacity:1;"
         id="stop3702" />
      <stop
         offset="1"
         style="stop-color:#f4e273;stop-opacity:1;"
         id="stop3704" />
    </linearGradient>
    <linearGradient
       id="linearGradient3737">
      <stop
         offset="0"
         style="stop-color:#ffffff;stop-opacity:1"
         id="stop3739" />
      <stop
         offset="1"
         style="stop-color:#ffffff;stop-opacity:0"
         id="stop3741" />
    </linearGradient>
    <linearGradient
       gradientTransform="scale(1.0058652,0.994169)"
       gradientUnits="userSpaceOnUse"
       id="ButtonShadow"
       y2="7.0165396"
       x2="45.447727"
       y1="92.539597"
       x1="45.447727">
      <stop
         offset="0"
         style="stop-color:#000000;stop-opacity:1"
         id="stop3750" />
      <stop
         offset="1"
         style="stop-color:#000000;stop-opacity:0.58823532"
         id="stop3752" />
    </linearGradient>
    <radialGradient
       gradientUnits="userSpaceOnUse"
       gradientTransform="matrix(2.9166668,0,0,1.0833331,-46.500002,-0.2083278)"
       r="6"
       fy="38.5"
       fx="24"
       cy="38.5"
       cx="24"
       id="radialGradient7112-9"
       xlink:href="#linearGradient7106-2"
       inkscape:collect="always" />
    <linearGradient
       id="linearGradient7106-2"
       inkscape:collect="always">
      <stop
         id="stop7108-4"
         offset="0"
         style="stop-color:#000000;stop-opacity:1;" />
      <stop
         id="stop7110-8"
         offset="1"
         style="stop-color:#000000;stop-opacity:0;" />
    </linearGradient>
    <linearGradient
       gradientUnits="userSpaceOnUse"
       y2="39"
       x2="38"
       y1="39"
       x1="8"
       id="linearGradient3233-9"
       xlink:href="#linearGradient3235-7"
       inkscape:collect="always" />
    <linearGradient
       id="linearGradient3235-7">
      <stop
         style="stop-color:#fce94f;stop-opacity:1"
         offset="0"
         id="stop3237-4" />
      <stop
         id="stop3239-8"
         offset="0.5"
         style="stop-color:#fce94f;stop-opacity:1" />
      <stop
         style="stop-color:#edd400;stop-opacity:1"
         offset="0.75"
         id="stop3241-3" />
      <stop
         style="stop-color:#c4a000;stop-opacity:1"
         offset="1"
         id="stop3243-1" />
    </linearGradient>
    <radialGradient
       r="14.5"
       fy="19.5"
       fx="23.5"
       cy="19.5"
       cx="23.5"
       gradientTransform="matrix(0.5517241,0,0,0.2413793,11.034483,35.793103)"
       gradientUnits="userSpaceOnUse"
       id="radialGradient7116-9"
       xlink:href="#linearGradient5539-3"
       inkscape:collect="always" />
    <linearGradient
       id="linearGradient5539-3"
       inkscape:collect="always">
      <stop
         id="stop5541-8-8"
         offset="0"
         style="stop-color:#000000;stop-opacity:1;" />
      <stop
         id="stop5543-1"
         offset="1"
         style="stop-color:#000000;stop-opacity:0;" />
    </linearGradient>
    <linearGradient
       gradientTransform="matrix(2.2500001,0,0,1.2726172,-31.000001,-8.9499257)"
       gradientUnits="userSpaceOnUse"
       y2="54.179626"
       x2="42.230766"
       y1="37.6782"
       x1="21"
       id="linearGradient4751-0"
       xlink:href="#linearGradient12294-1"
       inkscape:collect="always" />
    <linearGradient
       id="linearGradient12294-1">
      <stop
         style="stop-color:#fef8c4;stop-opacity:1"
         offset="0"
         id="stop12296-6" />
      <stop
         style="stop-color:#edd400;stop-opacity:1"
         offset="1"
         id="stop12298-8" />
    </linearGradient>
    <linearGradient
       gradientUnits="userSpaceOnUse"
       y2="28"
       x2="39"
       y1="27"
       x1="3"
       id="linearGradient2846-7"
       xlink:href="#linearGradient2188-0"
       inkscape:collect="always" />
    <linearGradient
       id="linearGradient2188-0">
      <stop
         id="stop2190-5"
         offset="0"
         style="stop-color:#c4a000;stop-opacity:1" />
      <stop
         style="stop-color:#edd400;stop-opacity:1"
         offset="0.20552924"
         id="stop3626-3" />
      <stop
         style="stop-color:#fce94f;stop-opacity:1"
         offset="0.5"
         id="stop2848-6" />
      <stop
         id="stop2850-5"
         offset="0.75"
         style="stop-color:#edd400;stop-opacity:1" />
      <stop
         id="stop2192-0"
         offset="1"
         style="stop-color:#c4a000;stop-opacity:1" />
    </linearGradient>
    <radialGradient
       r="14.5"
       fy="8.8798504"
       fx="13.819342"
       cy="8.8798504"
       cx="13.819342"
       gradientTransform="matrix(0.3567181,0.4597701,-0.5655855,0.7289769,16.26512,4.5064085)"
       gradientUnits="userSpaceOnUse"
       id="radialGradient19774-5"
       xlink:href="#linearGradient3570-4"
       inkscape:collect="always" />
    <linearGradient
       id="linearGradient3570-4">
      <stop
         id="stop3572-9"
         offset="0"
         style="stop-color:#ffffff;stop-opacity:1;" />
      <stop
         id="stop3574-3"
         offset="1"
         style="stop-color:#fce94f;stop-opacity:1;" />
    </linearGradient>
    <linearGradient
       gradientTransform="matrix(0.92,0,0,0.8888889,8.9090905e-7,1.6111111)"
       gradientUnits="userSpaceOnUse"
       y2="47.6875"
       x2="44.565216"
       y1="14"
       x1="12"
       id="linearGradient17109-6"
       xlink:href="#linearGradient3570-4"
       inkscape:collect="always" />
    <radialGradient
       gradientUnits="userSpaceOnUse"
       gradientTransform="matrix(2.6249997,2.7443598,-0.4329059,2.1970053,-4.9758584,-64.937913)"
       r="7"
       fy="27.331398"
       fx="10.450585"
       cy="27.331398"
       cx="10.450585"
       id="radialGradient6717-3"
       xlink:href="#linearGradient6328-5"
       inkscape:collect="always" />
    <linearGradient
       id="linearGradient6328-5"
       inkscape:collect="always">
      <stop
         id="stop6330-8"
         offset="0"
         style="stop-color:#ffffff;stop-opacity:1;" />
      <stop
         id="stop6332-7"
         offset="1"
         style="stop-color:#ffffff;stop-opacity:0;" />
    </linearGradient>
    <radialGradient
       gradientUnits="userSpaceOnUse"
       gradientTransform="matrix(0.3103448,0,0,0.137931,16.206898,15.310346)"
       r="14.5"
       fy="19.5"
       fx="23.5"
       cy="19.5"
       cx="23.5"
       id="radialGradient5545-5"
       xlink:href="#linearGradient5539-3"
       inkscape:collect="always" />
    <radialGradient
       r="15.5"
       fy="21.094482"
       fx="13.071457"
       cy="21.094482"
       cx="13.071457"
       gradientTransform="matrix(1.4285703,2.2586675,-1.8530096,1.6167349,33.346827,-44.63139)"
       gradientUnits="userSpaceOnUse"
       id="radialGradient17706-9"
       xlink:href="#linearGradient2790-6"
       inkscape:collect="always" />
    <linearGradient
       id="linearGradient2790-6">
      <stop
         id="stop2792-2"
         offset="0"
         style="stop-color:#ffffff;stop-opacity:1;" />
      <stop
         id="stop2794-9"
         offset="1"
         style="stop-color:#fce94f;stop-opacity:1;" />
    </linearGradient>
    <radialGradient
       gradientUnits="userSpaceOnUse"
       gradientTransform="matrix(0.7000001,0,0,-0.7272727,6.5500005,25.181818)"
       r="5.5"
       fy="16.749998"
       fx="21.624998"
       cy="16.749998"
       cx="21.624998"
       id="radialGradient5934-9"
       xlink:href="#linearGradient7499-3"
       inkscape:collect="always" />
    <linearGradient
       inkscape:collect="always"
       id="linearGradient7499-3">
      <stop
         style="stop-color:#fff5ac;stop-opacity:1"
         offset="0"
         id="stop7501-8" />
      <stop
         style="stop-color:#edd400;stop-opacity:1"
         offset="1"
         id="stop7503-3" />
    </linearGradient>
    <radialGradient
       gradientUnits="userSpaceOnUse"
       gradientTransform="matrix(1.0996737,-2.6392164,-1.8750005,-1.9999998,19.432184,98.396098)"
       r="3.5"
       fy="12.74359"
       fx="23.078409"
       cy="12.74359"
       cx="23.078409"
       id="radialGradient3185-3"
       xlink:href="#linearGradient2790-6"
       inkscape:collect="always" />
    <radialGradient
       r="3"
       fy="28.5"
       fx="22.999998"
       cy="28.5"
       cx="22.999998"
       gradientTransform="matrix(0.5999998,0,0,1.1666668,0.2000035,-5.8416827)"
       gradientUnits="userSpaceOnUse"
       id="radialGradient11865-0"
       xlink:href="#linearGradient8285-5"
       inkscape:collect="always" />
    <linearGradient
       id="linearGradient8285-5">
      <stop
         id="stop8287-6"
         offset="0"
         style="stop-color:#ff6c6c;stop-opacity:1;" />
      <stop
         id="stop8289-6"
         offset="1"
         style="stop-color:#cc0000;stop-opacity:1;" />
    </linearGradient>
    <linearGradient
       y2="31"
       x2="25"
       y1="26"
       x1="21"
       gradientTransform="matrix(0.3333332,0,0,0.8333333,6.3333338,4.0749898)"
       gradientUnits="userSpaceOnUse"
       id="linearGradient11867-4"
       xlink:href="#linearGradient11853-3"
       inkscape:collect="always" />
    <linearGradient
       id="linearGradient11853-3"
       inkscape:collect="always">
      <stop
         id="stop11855-7"
         offset="0"
         style="stop-color:#ffffff;stop-opacity:1;" />
      <stop
         id="stop11857-1"
         offset="1"
         style="stop-color:#ffffff;stop-opacity:0;" />
    </linearGradient>
    <radialGradient
       r="3"
       fy="28.5"
       fx="22.999998"
       cy="28.5"
       cx="22.999998"
       gradientTransform="matrix(0.6,0,0,1.1666668,18.199999,-5.7500067)"
       gradientUnits="userSpaceOnUse"
       id="radialGradient14259-7"
       xlink:href="#linearGradient8285-5"
       inkscape:collect="always" />
    <linearGradient
       y2="31"
       x2="25"
       y1="26"
       x1="21"
       gradientTransform="matrix(0.3333332,0,0,0.8333333,24.333334,4.1666658)"
       gradientUnits="userSpaceOnUse"
       id="linearGradient14261-5"
       xlink:href="#linearGradient11853-3"
       inkscape:collect="always" />
    <radialGradient
       r="3"
       fy="28.5"
       fx="22.999998"
       cy="28.5"
       cx="22.999998"
       gradientTransform="matrix(0.9999995,0,0,1.5555553,9.5596046e-6,-13.83333)"
       gradientUnits="userSpaceOnUse"
       id="radialGradient17172-8"
       xlink:href="#linearGradient8285-5"
       inkscape:collect="always" />
    <linearGradient
       y2="31"
       x2="25"
       y1="26"
       x1="21"
       gradientTransform="matrix(0.5555553,0,0,1.1111107,10.222227,-0.6111033)"
       gradientUnits="userSpaceOnUse"
       id="linearGradient17174-7"
       xlink:href="#linearGradient11853-3"
       inkscape:collect="always" />
    <radialGradient
       r="3.0477226"
       fy="16.969122"
       fx="3.5"
       cy="16.969122"
       cx="3.5"
       gradientTransform="matrix(0.5290677,1.2697623,-1.3124555,0.7874732,23.91948,-1.0068978)"
       gradientUnits="userSpaceOnUse"
       id="radialGradient18124-1"
       xlink:href="#linearGradient14664-2"
       inkscape:collect="always" />
    <linearGradient
       id="linearGradient14664-2">
      <stop
         id="stop14666-8"
         offset="0"
         style="stop-color:#ffffff;stop-opacity:1;" />
      <stop
         id="stop14668-6"
         offset="1"
         style="stop-color:#eeeeec;stop-opacity:1" />
    </linearGradient>
    <radialGradient
       r="3.0477226"
       fy="16.969122"
       fx="3.5"
       cy="16.969122"
       cx="3.5"
       gradientTransform="matrix(0.5290677,1.2697623,-1.3124555,0.7874732,23.91948,-1.0068978)"
       gradientUnits="userSpaceOnUse"
       id="radialGradient18126-0"
       xlink:href="#linearGradient14664-2"
       inkscape:collect="always" />
    <radialGradient
       r="3.0477226"
       fy="16.969122"
       fx="3.5"
       cy="16.969122"
       cx="3.5"
       gradientTransform="matrix(0.5290677,1.2697623,-1.3124555,0.7874732,23.91948,-1.0068978)"
       gradientUnits="userSpaceOnUse"
       id="radialGradient18128-1"
       xlink:href="#linearGradient14664-2"
       inkscape:collect="always" />
    <radialGradient
       gradientUnits="userSpaceOnUse"
       gradientTransform="matrix(0.5290677,1.2697623,-1.3124555,0.7874732,23.91948,-1.0068978)"
       r="3.0477226"
       fy="16.969122"
       fx="3.5"
       cy="16.969122"
       cx="3.5"
       id="radialGradient18099-3"
       xlink:href="#linearGradient14664-2"
       inkscape:collect="always" />
    <linearGradient
       id="linearGradient19744-0">
      <stop
         style="stop-color:#ffffff;stop-opacity:1;"
         offset="0"
         id="stop19746-9" />
      <stop
         id="stop19748-0"
         offset="0.78597295"
         style="stop-color:#edd400;stop-opacity:1" />
      <stop
         style="stop-color:#ffffff;stop-opacity:1;"
         offset="1"
         id="stop19750-8" />
    </linearGradient>
    <linearGradient
       y2="35.394569"
       x2="41.660713"
       y1="12.358853"
       x1="40.035717"
       gradientUnits="userSpaceOnUse"
       id="linearGradient4640"
       xlink:href="#linearGradient19744-0"
       inkscape:collect="always" />
    <radialGradient
       inkscape:collect="always"
       xlink:href="#linearGradient3737"
       id="radialGradient4909"
       gradientUnits="userSpaceOnUse"
       gradientTransform="matrix(0.58920408,0,0,0.50703047,-4.0525473,-0.27081091)"
       cx="48"
       cy="90.171875"
       fx="48"
       fy="90.171875"
       r="42" />
    <linearGradient
       inkscape:collect="always"
       xlink:href="#linearGradient3737"
       id="linearGradient4912"
       gradientUnits="userSpaceOnUse"
       x1="36.357143"
       y1="6"
       x2="36.357143"
       y2="63.893143"
       gradientTransform="matrix(0.5091139,0,0,0.5091139,-0.20821771,-0.37117352)" />
    <linearGradient
       inkscape:collect="always"
       xlink:href="#linearGradient3700"
       id="linearGradient4915"
       gradientUnits="userSpaceOnUse"
       x1="48"
       y1="90"
       x2="48"
       y2="5.9877172"
       gradientTransform="matrix(0.5091139,0,0,0.5091139,-0.20821771,-0.37117352)" />
    <filter
       inkscape:collect="always"
       id="filter4990">
      <feGaussianBlur
         inkscape:collect="always"
         stdDeviation="1.5147901"
         id="feGaussianBlur4992" />
    </filter>
  </defs>
  <sodipodi:namedview
     id="base"
     pagecolor="#ffffff"
     bordercolor="#666666"
     borderopacity="1.0"
     inkscape:pageopacity="0.0"
     inkscape:pageshadow="2"
     inkscape:zoom="7"
     inkscape:cx="26.844816"
     inkscape:cy="22.896297"
     inkscape:current-layer="layer6"
     showgrid="true"
     inkscape:grid-bbox="true"
     inkscape:document-units="px"
     inkscape:window-width="927"
     inkscape:window-height="700"
     inkscape:window-x="376"
     inkscape:window-y="94"
     inkscape:window-maximized="0" />
  <metadata
     id="metadata2990">
    <rdf:RDF>
      <cc:Work
         rdf:about="">
        <dc:format>image/svg+xml</dc:format>
        <dc:type
           rdf:resource="http://purl.org/dc/dcmitype/StillImage" />
        <dc:title />
        <cc:license
           rdf:resource="https://creativecommons.org/licenses/GPL/2.0/" />
      </cc:Work>
    </rdf:RDF>
  </metadata>
  <g
     id="layer1"
     inkscape:label="background"
     inkscape:groupmode="layer"
     sodipodi:insensitive="true">
    <g
       id="layer2"
       style="display:none"
       transform="matrix(0.5091139,0,0,0.5091139,-0.20821771,-0.37117352)">
      <rect
         width="86"
         height="85"
         rx="6"
         ry="6"
         x="5"
         y="7"
         id="rect3745"
         style="opacity:0.9;fill:url(#ButtonShadow);fill-opacity:1;fill-rule:nonzero;stroke:none;filter:url(#filter3174)" />
    </g>
    <g
       id="layer3"
       transform="matrix(0.5091139,0,0,0.5091139,-0.20821771,-0.37117352)">
      <path
         inkscape:connector-curvature="0"
         d="m 12,-95.03125 c -5.5110903,0 -10.03125,4.52016 -10.03125,10.03125 l 0,71 c 0,5.5110902 4.5201598,10.03125 10.03125,10.03125 l 72,0 c 5.51109,0 10.03125,-4.5201597 10.03125,-10.03125 l 0,-71 c 0,-5.51109 -4.52016,-10.03125 -10.03125,-10.03125 l -72,0 z"
         transform="scale(1,-1)"
         id="path3786"
         style="opacity:0.07999998;fill:url(#linearGradient3026);fill-opacity:1;fill-rule:nonzero;stroke:none;display:inline" />
      <path
         inkscape:connector-curvature="0"
         d="m 12,-94.03125 c -4.971633,0 -9.03125,4.059617 -9.03125,9.03125 l 0,71 c 0,4.9716329 4.0596171,9.03125 9.03125,9.03125 l 72,0 c 4.971633,0 9.03125,-4.059617 9.03125,-9.03125 l 0,-71 c 0,-4.971633 -4.059617,-9.03125 -9.03125,-9.03125 l -72,0 z"
         transform="scale(1,-1)"
         id="path3778"
         style="opacity:0.1;fill:url(#linearGradient3780);fill-opacity:1;fill-rule:nonzero;stroke:none;display:inline" />
      <path
         inkscape:connector-curvature="0"
         d="m 12,-93 c -4.4091333,0 -8,3.590867 -8,8 l 0,71 c 0,4.4091333 3.5908667,8 8,8 l 72,0 c 4.409133,0 8,-3.5908667 8,-8 l 0,-71 c 0,-4.409133 -3.590867,-8 -8,-8 l -72,0 z"
         transform="scale(1,-1)"
         id="path3770"
         style="opacity:0.2;fill:url(#linearGradient3772);fill-opacity:1;fill-rule:nonzero;stroke:none;display:inline" />
      <rect
         width="86"
         height="85"
         rx="7"
         ry="7"
         x="5"
         y="-92"
         transform="scale(1,-1)"
         id="rect3723"
         style="opacity:0.3;fill:url(#linearGradient3725);fill-opacity:1;fill-rule:nonzero;stroke:none;display:inline" />
      <rect
         width="84"
         height="84"
         rx="6"
         ry="6"
         x="6"
         y="-91"
         transform="scale(1,-1)"
         id="rect3716"
         style="opacity:0.45;fill:url(#linearGradient3721);fill-opacity:1;fill-rule:nonzero;stroke:none;display:inline" />
    </g>
    <rect
       style="fill:url(#linearGradient4915);fill-opacity:1;fill-rule:nonzero;stroke:none"
       id="rect2419"
       y="2.6835098"
       x="2.8464656"
       ry="3.0546834"
       rx="3.0546834"
       height="42.765568"
       width="42.765568" />
    <path
       style="opacity:0.3;fill:url(#linearGradient4912);fill-opacity:1;fill-rule:nonzero;stroke:none"
       id="rect3728"
       inkscape:connector-curvature="0"
       d="m 5.9011491,2.6835099 c -1.6922946,0 -3.0546834,1.3623888 -3.0546834,3.0546834 l 0,1.0182278 0,34.6197449 0,1.018228 c 0,0.170411 0.021052,0.33128 0.047729,0.493204 0.024794,0.150492 0.049404,0.303898 0.095459,0.445475 0.00503,0.01547 0.010636,0.03238 0.01591,0.04773 0.050333,0.146508 0.1195808,0.278716 0.1909177,0.413655 0.073614,0.139247 0.1606845,0.272689 0.2545569,0.397746 0.093873,0.125056 0.1902949,0.241051 0.3022864,0.350015 0.2239832,0.21793 0.4800486,0.414687 0.7636709,0.556844 0.1418111,0.07108 0.2919631,0.125724 0.4454746,0.175008 -0.1304359,-0.05103 -0.2477912,-0.12029 -0.3659256,-0.190918 -0.00377,-0.0022 -0.01215,0.0023 -0.01591,0 -0.016258,-0.0098 -0.031714,-0.02164 -0.047729,-0.03182 C 4.4716106,45.012283 4.4152888,44.968083 4.3578977,44.924055 4.3038437,44.882915 4.2493134,44.842025 4.1987996,44.796776 4.1082126,44.714586 4.0219031,44.620934 3.9442426,44.52631 3.8894726,44.46 3.8330553,44.391249 3.7851445,44.319482 c -0.012773,-0.01954 -0.019573,-0.04372 -0.03182,-0.06364 -0.032972,-0.05246 -0.066301,-0.104123 -0.095459,-0.159098 -0.051425,-0.09913 -0.1047119,-0.211639 -0.1431883,-0.318197 -0.00405,-0.0111 -0.01201,-0.02064 -0.01591,-0.03182 -0.016203,-0.04681 -0.018229,-0.09512 -0.03182,-0.143188 -0.015443,-0.05428 -0.035836,-0.103366 -0.047729,-0.159099 -0.037103,-0.173868 -0.063639,-0.355465 -0.063639,-0.540933 l 0,-1.018228 0,-34.619745 0,-1.0182278 c 0,-1.4162775 1.1292919,-2.5455695 2.5455695,-2.5455695 l 1.0182278,0 34.6197455,0 1.018228,0 c 1.416277,0 2.545569,1.129292 2.545569,2.5455695 l 0,1.0182278 0,34.619745 0,1.018228 c 0,0.185468 -0.02654,0.367065 -0.06364,0.540933 -0.02248,0.105333 -0.045,0.202454 -0.07955,0.302287 -0.0039,0.01118 -0.01186,0.02072 -0.01591,0.03182 -0.03194,0.08845 -0.07045,0.187074 -0.111368,0.270467 -0.02117,0.04216 -0.04024,0.08653 -0.06364,0.127279 -0.0278,0.04949 -0.06454,0.09589 -0.09546,0.143188 -0.04791,0.07177 -0.104329,0.140513 -0.159099,0.206828 -0.07289,0.08881 -0.154333,0.176661 -0.238647,0.254556 -0.0057,0.0052 -0.01017,0.01077 -0.01591,0.01591 -0.07045,0.06392 -0.145143,0.119355 -0.222737,0.175008 -0.05222,0.03724 -0.104021,0.07808 -0.159098,0.111369 -0.0038,0.0023 -0.01214,-0.0022 -0.01591,0 -0.118134,0.07063 -0.235489,0.139893 -0.365925,0.190918 0.153511,-0.04928 0.303663,-0.10393 0.445474,-0.175008 0.283623,-0.142157 0.539688,-0.338914 0.763671,-0.556844 0.111991,-0.108964 0.208414,-0.224959 0.302287,-0.350015 0.09387,-0.125057 0.180943,-0.258499 0.254556,-0.397746 0.07134,-0.134939 0.140585,-0.267147 0.190918,-0.413655 0.0053,-0.01567 0.01086,-0.03194 0.01591,-0.04773 0.04605,-0.141577 0.07066,-0.294983 0.09546,-0.445475 0.02668,-0.161924 0.04773,-0.322793 0.04773,-0.493204 l 0,-1.018228 0,-34.6197449 0,-1.0182278 c 0,-1.6922946 -1.362389,-3.0546834 -3.054683,-3.0546834 l -36.6562013,0 z" />
    <path
       style="opacity:0.15;fill:url(#radialGradient4909);fill-opacity:1;fill-rule:nonzero;stroke:none"
       id="path3615"
       inkscape:connector-curvature="0"
       d="m 5.9011491,45.449077 c -1.6922946,0 -3.0546834,-1.362388 -3.0546834,-3.054683 l 0,-1.018228 0,-34.6197449 0,-1.0182278 c 0,-0.1704111 0.021052,-0.3312804 0.047729,-0.4932041 0.024794,-0.150492 0.049404,-0.3038977 0.095459,-0.4454747 0.00503,-0.015467 0.010636,-0.03238 0.01591,-0.047729 C 3.0558973,4.6052769 3.1251446,4.4730697 3.1964815,4.3381301 3.2700952,4.1988838 3.357166,4.065441 3.4510384,3.9403848 3.5449109,3.8153286 3.6413333,3.6993336 3.7533248,3.590369 3.977308,3.3724398 4.2333734,3.1756825 4.5169957,3.0335257 4.6588068,2.9624473 4.8089588,2.9078015 4.9624703,2.8585178 4.8320344,2.9095422 4.7146791,2.9788071 4.5965447,3.0494355 c -0.00377,0.00224 -0.01215,-0.00229 -0.01591,0 -0.016258,0.00983 -0.031714,0.021642 -0.047729,0.03182 -0.061295,0.039049 -0.1176168,0.083247 -0.1750079,0.1272785 -0.054054,0.041136 -0.1085843,0.082024 -0.1590981,0.1272785 -0.090587,0.082188 -0.1768965,0.1758418 -0.254557,0.2704667 -0.05477,0.066315 -0.1111873,0.1350603 -0.1590981,0.2068275 -0.012773,0.01954 -0.019573,0.043718 -0.03182,0.063639 -0.032972,0.052455 -0.066301,0.1041224 -0.095459,0.1590981 -0.051425,0.099127 -0.1047119,0.2116391 -0.1431883,0.3181962 -0.00405,0.011104 -0.01201,0.020644 -0.01591,0.03182 -0.016203,0.046813 -0.018229,0.095118 -0.03182,0.1431883 -0.015443,0.054281 -0.035836,0.1033659 -0.047729,0.1590981 -0.037103,0.1738685 -0.063639,0.3554658 -0.063639,0.5409335 l 0,1.0182278 0,34.6197443 0,1.018228 c 0,1.416278 1.1292919,2.54557 2.5455695,2.54557 l 1.0182278,0 34.6197454,0 1.018228,0 c 1.416277,0 2.545569,-1.129292 2.545569,-2.54557 l 0,-1.018228 0,-34.6197443 0,-1.0182278 c 0,-0.1854677 -0.02654,-0.367065 -0.06364,-0.5409335 -0.02248,-0.1053321 -0.045,-0.2024533 -0.07955,-0.3022864 -0.0039,-0.011175 -0.01186,-0.020716 -0.01591,-0.03182 -0.03194,-0.088453 -0.07045,-0.1870734 -0.111368,-0.2704668 -0.02117,-0.042155 -0.04024,-0.086526 -0.06364,-0.1272785 -0.0278,-0.049491 -0.06454,-0.095892 -0.09546,-0.1431883 -0.04791,-0.071767 -0.104329,-0.1405128 -0.159099,-0.2068275 -0.07289,-0.088815 -0.154333,-0.1766615 -0.238647,-0.2545569 -0.0057,-0.00519 -0.01017,-0.010768 -0.01591,-0.01591 -0.07045,-0.063922 -0.145143,-0.1193547 -0.222737,-0.1750079 -0.05222,-0.037242 -0.104021,-0.07808 -0.159098,-0.1113687 -0.0038,-0.00229 -0.01214,0.00224 -0.01591,0 -0.118134,-0.070628 -0.235489,-0.1398933 -0.365925,-0.1909177 0.153511,0.049282 0.303663,0.1039295 0.445474,0.1750079 0.283623,0.1421568 0.539688,0.3389141 0.763671,0.5568433 0.111991,0.1089646 0.208414,0.2249596 0.302287,0.3500158 0.09387,0.1250562 0.180943,0.258499 0.254556,0.3977453 0.07134,0.1349396 0.140585,0.2671468 0.190918,0.413655 0.0053,0.01567 0.01086,0.031942 0.01591,0.047729 0.04605,0.141577 0.07066,0.2949827 0.09546,0.4454747 0.02668,0.1619237 0.04773,0.322793 0.04773,0.4932041 l 0,1.0182278 0,34.6197444 0,1.018228 c 0,1.692295 -1.362389,3.054683 -3.054683,3.054683 l -36.6562012,0 z" />
    <g
       id="layer5"
       style="display:inline"
       transform="matrix(0.5091139,0,0,0.5091139,-0.20821771,-0.37117352)">
      <rect
         width="66"
         height="66"
         rx="12"
         ry="12"
         x="15"
         y="15"
         clip-path="url(#clipPath3613)"
         id="rect3171"
         style="opacity:0.1;fill:url(#linearGradient3613);fill-opacity:1;fill-rule:nonzero;stroke:#ffffff;stroke-width:0.5;stroke-linecap:round;stroke-linejoin:miter;stroke-miterlimit:4;stroke-opacity:1;stroke-dasharray:none;stroke-dashoffset:0;filter:url(#filter3794)" />
    </g>
  </g>
  <g
     inkscape:groupmode="layer"
     id="layer6"
     inkscape:label="shadow (for &lt; 64x64)"
     sodipodi:insensitive="true"
     style="display:none">
    <path
       style="color:#000000;fill:#000000;fill-opacity:0.74590167;fill-rule:evenodd;stroke:none;stroke-width:0.86309499px;marker:none;visibility:visible;display:inline;overflow:visible;filter:url(#filter4990);enable-background:accumulate"
       d="m 9,0.625 c -2.3821429,0 -4.3125,1.9303571 -4.3125,4.3125 0,0.6087341 0.1472753,1.1621537 0.375,1.6875 -0.7501987,0.6334539 -1.25,1.5670002 -1.25,2.625 0,1.297281 0.7224429,2.410115 1.78125,3 -0.027844,0.152055 -0.03125,0.27744 -0.03125,0.4375 0,0.40844 0.081331,0.781327 0.25,1.125 -0.6726033,0.365531 -1.125,1.087388 -1.125,1.90625 0,0.769234 0.393554,1.430414 1,1.8125 -0.08735,0.103259 -0.125,0.224581 -0.125,0.34375 0,0.321939 0.3524274,0.57039 0.875,0.71875 0.5856589,6.196039 3.961872,10.780796 8.46875,13.34375 -2.542974,0.790067 -4.1875,1.915154 -4.1875,3.1875 0,2.382143 5.623037,4.3125 12.53125,4.3125 6.908214,0 12.5,-1.930357 12.5,-4.3125 0,-1.418228 -1.996409,-2.650707 -5.0625,-3.4375 0.789329,-0.692957 1.523375,-1.572672 2.15625,-2.65625 2.531503,-4.33431 1.999999,-9.488618 2,-11.15625 0,-0.505572 -0.14459,-0.999517 -0.375,-1.46875 0.03394,-2.490337 0.862377,-4.5625 3.4375,-4.5625 2.629849,0 4.75,2.034216 4.75,4.59375 l 0,7.8125 c -0.326402,4.065267 -6.357568,4.892621 -9.53125,5.5 -0.386358,0.565409 -0.809478,1.049927 -1.25,1.5 4.206096,-1.139681 12.053979,-1.198529 12.5,-6.90625 l 0,-9.5 C 44.375,11.735744 41.889256,9.25 38.78125,9.25 c -3.108006,0 -5.1875,2.485744 -5.1875,5.59375 l 0.4375,0.84375 c -1.334527,-1.743243 -4.209379,-3.103187 -7.78125,-3.625 -0.13378,-1.102946 -1.421379,-1.96875 -3,-1.96875 -1.5341,0 -2.806908,0.816617 -3,1.875 -5.254284,0.623358 -9.15625,3.045488 -9.15625,5.90625 0,0.877113 -0.134315,2.721203 0.09375,4.90625 C 9.1472068,21.995045 9.0412303,20.284783 8.875,18.21875 8.96235,18.115491 9,17.994169 9,17.875 9,17.616802 8.7656201,17.376919 8.40625,17.21875 8.7792643,16.830838 9,16.298995 9,15.71875 9,15.521062 8.987365,15.338181 8.9375,15.15625 c 1.0412726,-0.335451 1.78125,-1.316388 1.78125,-2.46875 0,-0.597988 -0.19038,-1.155267 -0.53125,-1.59375 0.340358,-0.534864 0.53125,-1.163246 0.53125,-1.84375 0,-0.1196285 -0.01936,-0.258495 -0.03125,-0.375 1.548717,-0.6554129 2.625,-2.150893 2.625,-3.9375 C 13.3125,2.5553572 11.382143,0.62499999 9,0.625 z"
       id="path3305"
       inkscape:connector-curvature="0" />
  </g>
  <g
     inkscape:groupmode="layer"
     id="layer4"
     inkscape:label="lamp"
     sodipodi:insensitive="true"
     style="display:inline">
    <g
       id="layer1-2"
       inkscape:label="Ebene 1"
       transform="matrix(0.86309524,0,0,0.86309524,3.3928573,0.17857197)">
      <path
         id="path6721"
         d="m 41.000002,41.499999 c 0,3.588 -7.840001,6.499999 -17.500001,6.499999 C 13.84,47.999998 6,45.087999 6,41.499999 6,37.912 13.84,35 23.500001,35 c 9.66,0 17.500001,2.912 17.500001,6.499999 z"
         style="opacity:0.6;color:#000000;fill:url(#radialGradient7112-9);fill-opacity:1;fill-rule:evenodd;stroke:none;stroke-width:0.48304588px;marker:none;visibility:visible;display:inline;overflow:visible;enable-background:accumulate"
         inkscape:connector-curvature="0" />
      <path
         id="path3580"
         d="m 37.499999,40.5 c 0,2.76 -6.496,5 -14.5,5 -8.003999,0 -14.4999997,-2.24 -14.4999997,-5 0,-2.76 6.4960007,-5 14.4999997,-5 8.004,0 14.5,2.24 14.5,5 z"
         style="color:#000000;fill:url(#linearGradient3233-9);fill-opacity:1;fill-rule:evenodd;stroke:#c4a000;stroke-width:0.9999997px;stroke-linecap:butt;stroke-linejoin:miter;stroke-miterlimit:4;stroke-opacity:1;stroke-dashoffset:0;marker:none;visibility:visible;display:inline;overflow:visible;enable-background:accumulate"
         inkscape:connector-curvature="0" />
      <path
         id="path7114"
         d="m 31.999998,40.5 c 0,1.932 -3.583999,3.5 -7.999999,3.5 C 19.583999,44 16,42.432 16,40.5 16,38.568 19.583999,37 23.999999,37 c 4.416,0 7.999999,1.568 7.999999,3.5 z"
         style="opacity:0.2;color:#000000;fill:url(#radialGradient7116-9);fill-opacity:1;fill-rule:evenodd;stroke:none;stroke-width:1px;marker:none;visibility:visible;display:inline;overflow:visible;enable-background:accumulate"
         inkscape:connector-curvature="0" />
      <path
         id="path4362"
         d="m 36.5,40.045839 c 0,2.458697 -6.048,4.454159 -13.499998,4.454159 -7.452001,0 -13.5000024,-1.995462 -13.5000024,-4.454159 0,-2.458697 6.0480014,-4.454161 13.5000024,-4.454161 7.451998,0 13.499998,1.995464 13.499998,4.454161 z"
         style="color:#000000;fill:none;stroke:url(#linearGradient4751-0);stroke-width:0.99999988px;stroke-linecap:butt;stroke-linejoin:miter;stroke-miterlimit:4;stroke-opacity:1;stroke-dashoffset:0;marker:none;visibility:visible;display:inline;overflow:visible;enable-background:accumulate"
         inkscape:connector-curvature="0" />
      <path
         id="path3578"
         d="M 30,38.999999 C 30,40.656 26.864,42 23,42 19.136,42 16,40.656 16,38.999999 16,37.344 19.136,36 23,36 c 3.864,0 7,1.344 7,2.999999 z"
         style="color:#000000;fill:#c4a000;fill-opacity:1;fill-rule:evenodd;stroke:none;stroke-width:1.38169873px;marker:none;visibility:visible;display:inline;overflow:visible;enable-background:accumulate"
         inkscape:connector-curvature="0" />
      <path
         sodipodi:nodetypes="cscccccssc"
         id="path2196"
         d="m 22.676304,13.5 c -7.601097,0 -13.7690322,3.129657 -13.7690325,6.993968 0,1.016241 -0.1527472,3.176442 0.1114902,5.708082 C 6.530419,25.243195 6.5331578,23.087734 6.3151258,20.525331 l -2.7872534,0 c -0.0078,0.17459 -0.027872,0.356529 -0.027872,0.533173 0.9176801,11.246313 9.7253456,18.016241 19.1763036,18.441495 3.800548,0 8.522563,-1.031253 11.455611,-6.053076 2.933052,-5.021821 2.31342,-11.020802 2.313421,-12.952955 0,-3.86431 -6.167938,-6.993968 -13.769032,-6.993968 z"
         style="color:#000000;fill:url(#linearGradient2846-7);fill-opacity:1;fill-rule:evenodd;stroke:#c4a000;stroke-width:0.9999997px;stroke-linecap:butt;stroke-linejoin:miter;stroke-miterlimit:4;stroke-opacity:1;stroke-dashoffset:0;marker:none;visibility:visible;display:inline;overflow:visible;enable-background:accumulate"
         inkscape:connector-curvature="0" />
      <path
         transform="matrix(0.7142857,0,0,3.0000004,6.9285725,-34.500007)"
         d="M 26,17.5 C 26,17.776142 24.432997,18 22.5,18 20.567003,18 19,17.776142 19,17.5 19,17.223858 20.567003,17 22.5,17 c 1.932997,0 3.5,0.223858 3.5,0.5 z"
         sodipodi:ry="0.5"
         sodipodi:rx="3.5"
         sodipodi:cy="17.5"
         sodipodi:cx="22.5"
         id="path3628"
         style="color:#000000;fill:#c4a000;fill-opacity:1;fill-rule:evenodd;stroke:#edd400;stroke-width:0.68313003px;stroke-linecap:butt;stroke-linejoin:miter;stroke-miterlimit:4;stroke-opacity:1;stroke-dasharray:none;stroke-dashoffset:0;marker:none;visibility:visible;display:inline;overflow:visible;enable-background:accumulate"
         sodipodi:type="arc" />
      <path
         sodipodi:nodetypes="csssc"
         id="path3187"
         d="m 19,19 c 0,2.760001 11.4,5 4.5,5 C 16.6,24 11,21.760001 11,19 c 0,-2.76 5.6,-5 12.5,-5 6.9,0 -4.5,2.24 -4.5,5 z"
         style="opacity:0.6;color:#000000;fill:url(#radialGradient19774-5);fill-opacity:1;fill-rule:evenodd;stroke:none;stroke-width:0.91345936px;marker:none;visibility:visible;display:inline;overflow:visible;enable-background:accumulate"
         inkscape:connector-curvature="0" />
      <path
         id="path16339"
         d="m 34.499998,18.5 c 0,2.207999 -5.151998,4 -11.499998,4 -6.348,0 -11.500001,-1.792001 -11.500001,-4 0,-2.208001 5.152001,-4 11.500001,-4 6.348,0 11.499998,1.791999 11.499998,4 z"
         style="color:#000000;fill:none;stroke:url(#linearGradient17109-6);stroke-width:0.99999994;stroke-linecap:butt;stroke-linejoin:miter;stroke-miterlimit:4;stroke-opacity:1;stroke-dasharray:none;stroke-dashoffset:0;marker:none;visibility:visible;display:inline;overflow:visible;enable-background:accumulate"
         inkscape:connector-curvature="0" />
      <path
         sodipodi:nodetypes="cssssccc"
         id="path5939"
         d="m 10.625,19 c 0,0.915534 -0.767012,5.759599 -0.625,8 C 10.07101,28.120201 5.1052705,22.887711 5.9375,22 7.8125,20 5,22 5,23 5,31.062258 14.519727,36.072058 15.892397,36.913001 17.265069,37.753943 18.711279,38 20,38 20,38 24,23 24,23 19.552193,23 11.76157,21.382369 10.625,19 z"
         style="opacity:0.6;color:#000000;fill:url(#radialGradient6717-3);fill-opacity:1;fill-rule:evenodd;stroke:none;stroke-width:1px;marker:none;visibility:visible;display:inline;overflow:visible;enable-background:accumulate"
         inkscape:connector-curvature="0" />
      <path
         style="color:#000000;fill:none;stroke:#c4a000;stroke-width:1;stroke-linecap:butt;stroke-linejoin:miter;stroke-miterlimit:4;stroke-opacity:1;stroke-dasharray:none;stroke-dashoffset:0;marker:none;visibility:visible;display:inline;overflow:visible;enable-background:accumulate"
         d="M 35.5,18.978366 C 35.5,21.474308 29.9,23.5 23,23.5 c -6.899998,0 -12.499999,-2.025692 -12.499999,-4.521634 0,-2.495943 5.600001,-4.521635 12.499999,-4.521635 6.9,0 12.5,2.025692 12.5,4.521635 z"
         id="path15948"
         inkscape:connector-curvature="0" />
      <path
         id="path5154"
         d="m 28,18 c 0,1.104 -2.016,2 -4.5,2 -2.483999,0 -4.499999,-0.896 -4.499999,-2 0,-1.103999 2.016,-1.999999 4.499999,-1.999999 2.484,0 4.5,0.896 4.5,1.999999 z"
         style="opacity:0.1;color:#000000;fill:url(#radialGradient5545-5);fill-opacity:1;fill-rule:evenodd;stroke:none;stroke-width:1px;marker:none;visibility:visible;display:inline;overflow:visible;enable-background:accumulate"
         inkscape:connector-curvature="0" />
      <path
         sodipodi:nodetypes="ccccccssc"
         id="path2206"
         d="m 22.725993,14.5 c -7.023753,0 -12.7987342,2.811741 -12.7987342,6.379465 0,0 0.1800802,6.370536 0.1800802,6.370536 C 7.5114915,26.825894 5.9867122,25.093751 5.8490537,21.625 4.9536045,21.304239 4.8733891,21.736497 4.4999998,21.906251 c 1.627048,10.270853 9.4548032,16.178334 18.2259932,16.593751 3.511878,0 7.889437,-0.957354 10.59971,-5.59375 C 36.035972,28.269858 35.445645,22.75261 35.445644,20.968751 35.445644,17.401028 29.749748,14.5 22.725993,14.5 z"
         style="color:#000000;fill:none;stroke:url(#radialGradient17706-9);stroke-width:0.99999988px;stroke-linecap:butt;stroke-linejoin:miter;stroke-miterlimit:4;stroke-opacity:1;stroke-dashoffset:0;marker:none;visibility:visible;display:inline;overflow:visible;enable-background:accumulate"
         inkscape:connector-curvature="0" />
      <path
         id="path2201"
         d="m 26.500001,14.000002 c 0,-1.380001 -1.568002,-2.5 -3.5,-2.5 -1.932,0 -3.499999,1.119999 -3.499999,2.5 0,1.379998 1.567999,4.5 3.499999,4.5 1.931998,0 3.5,-3.120002 3.5,-4.5 z"
         style="color:#000000;fill:url(#radialGradient5934-9);fill-opacity:1;fill-rule:evenodd;stroke:#c4a000;stroke-width:1px;stroke-linecap:butt;stroke-linejoin:miter;stroke-miterlimit:4;stroke-opacity:1;stroke-dashoffset:0;marker:none;visibility:visible;display:inline;overflow:visible;enable-background:accumulate"
         inkscape:connector-curvature="0" />
      <path
         id="path2204"
         d="M 25.500002,14.285716 C 25.500002,13.300001 24.38,12.500001 23,12.500001 c -1.379997,0 -2.499998,0.8 -2.499998,1.785715 0,0.985713 1.120001,3.214285 2.499998,3.214285 1.38,0 2.500002,-2.228572 2.500002,-3.214285 z"
         style="color:#000000;fill:none;stroke:url(#radialGradient3185-3);stroke-width:0.99999994px;stroke-linecap:butt;stroke-linejoin:miter;stroke-miterlimit:4;stroke-opacity:1;stroke-dashoffset:0;marker:none;visibility:visible;display:inline;overflow:visible;enable-background:accumulate"
         inkscape:connector-curvature="0" />
      <path
         id="path11861"
         d="M 13.999999,24.408323 12.5,27.408324 l 1.499999,3 1.500001,-3 -1.500001,-3.000001 z"
         style="fill:url(#radialGradient11865-0);fill-opacity:1;stroke:#a40000;stroke-width:0.99999994;stroke-linecap:round;stroke-linejoin:miter;stroke-miterlimit:4;stroke-opacity:1;stroke-dashoffset:0"
         inkscape:connector-curvature="0" />
      <path
         id="path11863"
         d="m 14,24.908323 -1,2.500001 1,2.499999 0,-5 z"
         style="fill:url(#linearGradient11867-4);fill-opacity:1;stroke:none"
         inkscape:connector-curvature="0" />
      <path
         id="path14255"
         d="M 32,24.499999 30.5,27.5 l 1.5,3 1.500001,-3 L 32,24.499999 z"
         style="fill:url(#radialGradient14259-7);fill-opacity:1;stroke:#a40000;stroke-width:0.99999994;stroke-linecap:round;stroke-linejoin:miter;stroke-miterlimit:4;stroke-opacity:1;stroke-dashoffset:0"
         inkscape:connector-curvature="0" />
      <path
         id="path14257"
         d="M 32,24.999999 31,27.5 l 1,2.499999 0,-5 z"
         style="fill:url(#linearGradient14261-5);fill-opacity:1;stroke:none"
         inkscape:connector-curvature="0" />
      <path
         style="fill:url(#radialGradient17172-8);fill-opacity:1;stroke:#a40000;stroke-width:0.99999988;stroke-linecap:round;stroke-linejoin:miter;stroke-miterlimit:4;stroke-opacity:1;stroke-dashoffset:0"
         d="M 22.999999,26.500001 20.500001,30.5 l 2.499998,4 2.500001,-4 -2.500001,-3.999999 z"
         id="path17168"
         inkscape:connector-curvature="0" />
      <path
         style="fill:url(#linearGradient17174-7);fill-opacity:1;stroke:none"
         d="m 23.000001,27.166666 -1.666666,3.333335 1.666666,3.333331 0,-6.666666 z"
         id="path17170"
         inkscape:connector-curvature="0" />
      <path
         transform="matrix(1,0,0,0.6666669,1.5,6.8333282)"
         d="M 5,20.5 C 5,21.328427 4.1045695,22 3,22 1.8954305,22 1,21.328427 1,20.5 1,19.671573 1.8954305,19 3,19 c 1.1045695,0 2,0.671573 2,1.5 z"
         sodipodi:ry="1.5"
         sodipodi:rx="2"
         sodipodi:cy="20.5"
         sodipodi:cx="3"
         id="path17203"
         style="color:#000000;fill:#2e3436;fill-opacity:1;fill-rule:evenodd;stroke:#c4a000;stroke-width:1.22474468px;stroke-linecap:butt;stroke-linejoin:miter;stroke-miterlimit:4;stroke-opacity:1;stroke-dasharray:none;stroke-dashoffset:0;marker:none;visibility:visible;display:inline;overflow:visible;enable-background:accumulate"
         sodipodi:type="arc" />
      <path
         sodipodi:type="arc"
         style="color:#000000;fill:url(#radialGradient18124-1);fill-opacity:1;fill-rule:evenodd;stroke:none;stroke-width:0.54772246px;marker:none;visibility:visible;display:inline;overflow:visible;enable-background:accumulate"
         id="path18109"
         sodipodi:cx="4.5"
         sodipodi:cy="18"
         sodipodi:rx="2.5"
         sodipodi:ry="3"
         d="M 7,18 C 7,19.656854 5.8807119,21 4.5,21 3.1192881,21 2,19.656854 2,18 2,16.343146 3.1192881,15 4.5,15 5.8807119,15 7,16.343146 7,18 z"
         transform="matrix(1.8,0,0,1.5,-1.6,-21.5)" />
      <path
         transform="matrix(1.4,0,0,1.1666666,-1.8,-10.499998)"
         d="M 7,18 C 7,19.656854 5.8807119,21 4.5,21 3.1192881,21 2,19.656854 2,18 2,16.343146 3.1192881,15 4.5,15 5.8807119,15 7,16.343146 7,18 z"
         sodipodi:ry="3"
         sodipodi:rx="2.5"
         sodipodi:cy="18"
         sodipodi:cx="4.5"
         id="path18105"
         style="color:#000000;fill:url(#radialGradient18126-0);fill-opacity:1;fill-rule:evenodd;stroke:none;stroke-width:0.6846531px;marker:none;visibility:visible;display:inline;overflow:visible;enable-background:accumulate"
         sodipodi:type="arc" />
      <path
         sodipodi:type="arc"
         style="color:#000000;fill:url(#radialGradient18128-1);fill-opacity:1;fill-rule:evenodd;stroke:none;stroke-width:0.91287076px;marker:none;visibility:visible;display:inline;overflow:visible;enable-background:accumulate"
         id="path18101"
         sodipodi:cx="4.5"
         sodipodi:cy="18"
         sodipodi:rx="2.5"
         sodipodi:ry="3"
         d="M 7,18 C 7,19.656854 5.8807119,21 4.5,21 3.1192881,21 2,19.656854 2,18 2,16.343146 3.1192881,15 4.5,15 5.8807119,15 7,16.343146 7,18 z"
         transform="matrix(1,0,0,0.8333334,1,-0.5000017)" />
      <path
         transform="matrix(0.8,0,0,0.6666667,0.4,5.9999992)"
         d="M 7,18 C 7,19.656854 5.8807119,21 4.5,21 3.1192881,21 2,19.656854 2,18 2,16.343146 3.1192881,15 4.5,15 5.8807119,15 7,16.343146 7,18 z"
         sodipodi:ry="3"
         sodipodi:rx="2.5"
         sodipodi:cy="18"
         sodipodi:cx="4.5"
         id="path17708"
         style="color:#000000;fill:url(#radialGradient18099-3);fill-opacity:1;fill-rule:evenodd;stroke:none;stroke-width:1.09544492px;marker:none;visibility:visible;display:inline;overflow:visible;enable-background:accumulate"
         sodipodi:type="arc" />
      <path
         id="path18113"
         d="m 6.5,0.5 c -2.76,0 -5,2.24 -5,5 0,0.7052919 0.1736534,1.3600729 0.4375,1.96875 C 1.0683042,8.2026828 0.5,9.2741795 0.5,10.5 c 0,1.503057 0.8357443,2.785297 2.0625,3.46875 C 2.5302393,14.144924 2.5,14.314551 2.5,14.5 c 0,0.473227 0.1170765,0.914313 0.3125,1.3125 C 2.033208,16.236011 1.5,17.051249 1.5,18 1.5,19.38 2.62,20.5 4,20.5 5.38,20.5 6.5,19.38 6.5,18 6.5,17.770954 6.464025,17.554539 6.40625,17.34375 7.61269,16.955089 8.5,15.835151 8.5,14.5 8.5,13.807159 8.269939,13.164285 7.875,12.65625 8.269345,12.036545 8.5,11.288446 8.5,10.5 8.5,10.361396 8.4512825,10.228735 8.4375,10.09375 10.231875,9.334375 11.5,7.5699998 11.5,5.5 c 0,-2.7599999 -2.2400001,-5.00000001 -5,-5 z"
         style="color:#000000;fill:none;stroke:#babdb6;stroke-width:0.99999994px;stroke-linecap:butt;stroke-linejoin:miter;stroke-miterlimit:4;stroke-opacity:1;stroke-dasharray:none;stroke-dashoffset:0;marker:none;visibility:visible;display:inline;overflow:visible;enable-background:accumulate"
         inkscape:connector-curvature="0" />
      <path
         id="path18130"
         d="m 6.5,1.4375 c -2.2356,0 -4.0624999,1.8269 -4.0625,4.0625 0,0.83835 0.2819195,1.6035821 0.71875,2.25 C 2.1380622,8.247806 1.4375,9.2909498 1.4375,10.5 c 0,1.419316 0.9704888,2.590691 2.28125,2.9375 -0.1867744,0.312236 -0.3125,0.672452 -0.3125,1.0625 0,1.15 0.9437501,2.09375 2.09375,2.09375 1.1500001,0 2.0937502,-0.94375 2.09375,-2.09375 0,-0.759952 -0.4229037,-1.417347 -1.03125,-1.78125 0.6023928,-0.559383 0.9999999,-1.332481 1,-2.21875 C 7.5625,10.126681 7.497472,9.7684083 7.375,9.4375 9.1855058,9.0335119 10.5625,7.4316981 10.5625,5.5 10.5625,3.2644 8.7355999,1.4375 6.5,1.4375 z M 4,16.40625 c -0.8832,0 -1.5937501,0.710549 -1.59375,1.59375 0,0.8832 0.71055,1.593751 1.59375,1.59375 0.8832,0 1.5937499,-0.710551 1.59375,-1.59375 C 5.59375,17.1168 4.8832,16.40625 4,16.40625 z"
         style="color:#000000;fill:none;stroke:#ffffff;stroke-width:0.83333319px;stroke-linecap:butt;stroke-linejoin:miter;stroke-miterlimit:4;stroke-opacity:1;stroke-dasharray:none;stroke-dashoffset:0;marker:none;visibility:visible;display:inline;overflow:visible;enable-background:accumulate"
         inkscape:connector-curvature="0" />
      <path
         sodipodi:nodetypes="cccsccccccc"
         id="rect19335"
         d="m 41,10.5 c -3.601,0 -6,2.899 -6,6.5 l 1,2 c -2e-6,-2.965529 0.953,-5.5 4,-5.5 3.046998,0 5.5,2.378221 5.5,5.34375 l 0,9.0625 C 45.121824,32.616353 38.114594,33.546278 34.4375,34.25 33.989858,34.905095 33.510398,35.478537 33,36 37.87327,34.679542 46.983231,34.613084 47.5,28 l 0,-11 c 0,-3.601 -2.899,-6.5 -6.5,-6.5 z"
         style="fill:#edd400;fill-opacity:1;stroke:#c4a000;stroke-width:0.99999988;stroke-linecap:round;stroke-linejoin:round;stroke-miterlimit:4;stroke-opacity:1;stroke-dashoffset:0"
         inkscape:connector-curvature="0" />
      <path
         sodipodi:nodetypes="cccc"
         id="path19353"
         d="m 36,16 c 3,-8 10.160714,-3.535714 10.428571,0.125 l -0.08928,12.5 C 46.339286,31.660715 41,34 34,35"
         style="opacity:0.8;fill:none;stroke:url(#linearGradient4640);stroke-width:1;stroke-linecap:round;stroke-linejoin:round;stroke-miterlimit:4;stroke-opacity:1;stroke-dasharray:none;stroke-dashoffset:0"
         inkscape:connector-curvature="0" />
    </g>
  </g>
</svg>
